<?xml version="1.0" encoding="UTF-8" standalone="no"?>
<!-- Uploaded to: SVG Repo, www.svgrepo.com, Generator: SVG Repo Mixer Tools -->

<svg
   fill="#000000"
   width="90"
   height="90"
   viewBox="0 0 2.7 2.7"
   role="img"
   version="1.1"
   id="svg1"
   sodipodi:docname="gamejolt-svgrepo-com.svg"
   inkscape:version="1.3.2 (091e20e, 2023-11-25)"
   xmlns:inkscape="http://www.inkscape.org/namespaces/inkscape"
   xmlns:sodipodi="http://sodipodi.sourceforge.net/DTD/sodipodi-0.dtd"
   xmlns="http://www.w3.org/2000/svg"
   xmlns:svg="http://www.w3.org/2000/svg">
  <defs
     id="defs1" />
  <sodipodi:namedview
     id="namedview1"
     pagecolor="#ffffff"
     bordercolor="#000000"
     borderopacity="0.25"
     inkscape:showpageshadow="2"
     inkscape:pageopacity="0.0"
     inkscape:pagecheckerboard="0"
     inkscape:deskcolor="#d1d1d1"
     inkscape:zoom="2.3628288"
     inkscape:cx="-13.543089"
     inkscape:cy="57.981348"
     inkscape:window-width="1366"
     inkscape:window-height="743"
     inkscape:window-x="0"
     inkscape:window-y="25"
     inkscape:window-maximized="1"
     inkscape:current-layer="svg1" />
  <path
     d="M 0.7147125,0 V 0.3177 H 0.55574999 V 0.6352875 H 0.397125 V 0.95298753 H 0.238275 V 1.270575 h -0.15885 v 0.3177 H 1.0323 V 1.9058625 H 0.87356249 v 0.3177 H 0.7147125 V 2.54115 H 0.87356249 V 2.3823 H 1.0323 V 2.2235625 h 0.15885 v -0.15885 H 1.35 V 1.90575 H 1.50885 V 1.7471249 H 1.6677 V 1.5883875 h 0.1587375 v -0.15885 h 0.15885 v -0.15885 h 0.15885 V 1.111725 h 0.15885 V 0.95298753 H 2.461725 V 0.79413749 H 1.9852875 V 0.6352875 h 0.15885 v -0.15885 h 0.15885 V 0.3177 H 2.461725 V 0.15885 h 0.15885 V 0 Z m 0,2.54115 H 0.55574999 V 2.7 H 0.7146 Z M 0.87356249,0.3177 H 1.9852875 v 0.1587375 h -0.15885 v 0.15885 H 1.6677 V 0.79425 H 1.50885 V 0.95287496 H 1.35 V 1.1116125 h 0.15885 v 0.15885 H 1.35 V 1.111725 H 1.19115 v 0.15885 H 1.0323 V 1.111725 H 0.87356249 v 0.15885 H 0.7147125 V 1.111725 H 0.55574999 V 0.95298753 H 0.7146 V 0.6352875 H 0.87344999 Z M 0.7147125,0.95287496 V 1.1116125 H 0.87356249 V 0.95298753 Z M 1.0323,1.1116125 H 1.19115 V 0.95298753 H 1.0323 Z m 0.6354,0 h 0.1587375 v 0.15885 H 1.6677 Z"
     id="path1"
     style="fill:#ffffff;fill-opacity:1;stroke:none;stroke-width:0.1125;stroke-opacity:1" />
</svg>
